<svg width="96" height="27" viewBox="0 0 96 27" fill="none" xmlns="http://www.w3.org/2000/svg">
<path d="M4.6875 21H0.722656V6.20703H4.6875V21ZM0.490234 2.37891C0.490234 1.78646 0.686198 1.29883 1.07812 0.916016C1.47917 0.533203 2.02148 0.341797 2.70508 0.341797C3.37956 0.341797 3.91732 0.533203 4.31836 0.916016C4.7194 1.29883 4.91992 1.78646 4.91992 2.37891C4.91992 2.98047 4.71484 3.47266 4.30469 3.85547C3.90365 4.23828 3.37044 4.42969 2.70508 4.42969C2.03971 4.42969 1.50195 4.23828 1.0918 3.85547C0.690755 3.47266 0.490234 2.98047 0.490234 2.37891ZM7.38086 13.4941C7.38086 11.2246 7.91862 9.39714 8.99414 8.01172C10.0788 6.6263 11.5371 5.93359 13.3691 5.93359C14.9915 5.93359 16.2539 6.48958 17.1562 7.60156L17.3203 6.20703H20.9023V20.5078C20.9023 21.8021 20.6061 22.9277 20.0137 23.8848C19.4303 24.8418 18.6055 25.571 17.5391 26.0723C16.4727 26.5736 15.224 26.8242 13.793 26.8242C12.7083 26.8242 11.651 26.6055 10.6211 26.168C9.59115 25.7396 8.81185 25.1836 8.2832 24.5L10.0332 22.0938C11.0176 23.1966 12.2116 23.748 13.6152 23.748C14.6634 23.748 15.4792 23.4655 16.0625 22.9004C16.6458 22.3444 16.9375 21.5514 16.9375 20.5215V19.7285C16.026 20.7585 14.8275 21.2734 13.3418 21.2734C11.5645 21.2734 10.1243 20.5807 9.02148 19.1953C7.92773 17.8008 7.38086 15.9551 7.38086 13.6582V13.4941ZM11.332 13.7812C11.332 15.1211 11.6009 16.1738 12.1387 16.9395C12.6764 17.696 13.4147 18.0742 14.3535 18.0742C15.5566 18.0742 16.418 17.623 16.9375 16.7207V10.5C16.4089 9.59766 15.5566 9.14648 14.3809 9.14648C13.4329 9.14648 12.6855 9.53385 12.1387 10.3086C11.6009 11.0833 11.332 12.2409 11.332 13.7812ZM24.1562 19.0586C24.1562 18.4297 24.3659 17.9193 24.7852 17.5273C25.2135 17.1354 25.7467 16.9395 26.3848 16.9395C27.0319 16.9395 27.5651 17.1354 27.9844 17.5273C28.4128 17.9193 28.627 18.4297 28.627 19.0586C28.627 19.6784 28.4173 20.1842 27.998 20.5762C27.5788 20.959 27.041 21.1504 26.3848 21.1504C25.7376 21.1504 25.2044 20.959 24.7852 20.5762C24.3659 20.1842 24.1562 19.6784 24.1562 19.0586ZM35.7363 6.20703L35.8594 7.91602C36.9167 6.5944 38.334 5.93359 40.1113 5.93359C41.679 5.93359 42.8457 6.39388 43.6113 7.31445C44.377 8.23503 44.7689 9.61133 44.7871 11.4434V21H40.8359V11.5391C40.8359 10.7005 40.6536 10.0944 40.2891 9.7207C39.9245 9.33789 39.3184 9.14648 38.4707 9.14648C37.3587 9.14648 36.5247 9.62044 35.9688 10.5684V21H32.0176V6.20703H35.7363ZM54.6035 21.2734C52.4342 21.2734 50.666 20.6081 49.2988 19.2773C47.9408 17.9466 47.2617 16.1738 47.2617 13.959V13.5762C47.2617 12.0905 47.5488 10.7643 48.123 9.59766C48.6973 8.42188 49.5085 7.51953 50.5566 6.89062C51.6139 6.2526 52.8171 5.93359 54.166 5.93359C56.1895 5.93359 57.7799 6.57161 58.9375 7.84766C60.1042 9.1237 60.6875 10.9329 60.6875 13.2754V14.8887H51.2676C51.3952 15.8548 51.778 16.6296 52.416 17.2129C53.0632 17.7962 53.8789 18.0879 54.8633 18.0879C56.3854 18.0879 57.5749 17.5365 58.4316 16.4336L60.373 18.6074C59.7806 19.446 58.9785 20.1022 57.9668 20.5762C56.9551 21.041 55.834 21.2734 54.6035 21.2734ZM54.1523 9.13281C53.3685 9.13281 52.7305 9.39714 52.2383 9.92578C51.7552 10.4544 51.4453 11.2109 51.3086 12.1953H56.8047V11.8809C56.7865 11.0059 56.5495 10.3314 56.0938 9.85742C55.638 9.37435 54.9909 9.13281 54.1523 9.13281ZM75.8086 15.627L77.75 6.20703H81.5645L77.791 21H74.4824L71.6797 11.6895L68.877 21H65.582L61.8086 6.20703H65.623L67.5508 15.6133L70.2578 6.20703H73.1152L75.8086 15.627ZM91.5449 16.9121C91.5449 16.429 91.3034 16.0508 90.8203 15.7773C90.3464 15.4948 89.5807 15.2441 88.5234 15.0254C85.0052 14.2871 83.2461 12.7923 83.2461 10.541C83.2461 9.22852 83.7884 8.13477 84.873 7.25977C85.9668 6.37565 87.3932 5.93359 89.1523 5.93359C91.0299 5.93359 92.5293 6.37565 93.6504 7.25977C94.7806 8.14388 95.3457 9.29232 95.3457 10.7051H91.3945C91.3945 10.14 91.2122 9.67513 90.8477 9.31055C90.4831 8.93685 89.9134 8.75 89.1387 8.75C88.4733 8.75 87.9583 8.90039 87.5938 9.20117C87.2292 9.50195 87.0469 9.88477 87.0469 10.3496C87.0469 10.7871 87.252 11.1426 87.6621 11.416C88.0814 11.6803 88.7832 11.9128 89.7676 12.1133C90.752 12.3047 91.5814 12.5234 92.2559 12.7695C94.3431 13.5352 95.3867 14.8613 95.3867 16.748C95.3867 18.097 94.8079 19.1908 93.6504 20.0293C92.4928 20.8587 90.998 21.2734 89.166 21.2734C87.9264 21.2734 86.8236 21.0547 85.8574 20.6172C84.9004 20.1706 84.1484 19.5645 83.6016 18.7988C83.0547 18.0241 82.7812 17.1901 82.7812 16.2969H86.5273C86.5638 16.9987 86.8236 17.5365 87.3066 17.9102C87.7897 18.2839 88.4368 18.4707 89.248 18.4707C90.0046 18.4707 90.5742 18.3294 90.957 18.0469C91.349 17.7552 91.5449 17.377 91.5449 16.9121Z" fill="white"/>
</svg>
