<svg width="21" height="21" viewBox="0 0 21 21" fill="none" xmlns="http://www.w3.org/2000/svg">
<rect width="21" height="21" fill="#171616"/>
<path d="M3.4375 14H1.73828V7.66016H3.4375V14ZM1.63867 6.01953C1.63867 5.76562 1.72266 5.55664 1.89062 5.39258C2.0625 5.22852 2.29492 5.14648 2.58789 5.14648C2.87695 5.14648 3.10742 5.22852 3.2793 5.39258C3.45117 5.55664 3.53711 5.76562 3.53711 6.01953C3.53711 6.27734 3.44922 6.48828 3.27344 6.65234C3.10156 6.81641 2.87305 6.89844 2.58789 6.89844C2.30273 6.89844 2.07227 6.81641 1.89648 6.65234C1.72461 6.48828 1.63867 6.27734 1.63867 6.01953ZM4.5918 10.7832C4.5918 9.81055 4.82227 9.02734 5.2832 8.43359C5.74805 7.83984 6.37305 7.54297 7.1582 7.54297C7.85352 7.54297 8.39453 7.78125 8.78125 8.25781L8.85156 7.66016H10.3867V13.7891C10.3867 14.3438 10.2598 14.8262 10.0059 15.2363C9.75586 15.6465 9.40234 15.959 8.94531 16.1738C8.48828 16.3887 7.95312 16.4961 7.33984 16.4961C6.875 16.4961 6.42188 16.4023 5.98047 16.2148C5.53906 16.0312 5.20508 15.793 4.97852 15.5L5.72852 14.4688C6.15039 14.9414 6.66211 15.1777 7.26367 15.1777C7.71289 15.1777 8.0625 15.0566 8.3125 14.8145C8.5625 14.5762 8.6875 14.2363 8.6875 13.7949V13.4551C8.29688 13.8965 7.7832 14.1172 7.14648 14.1172C6.38477 14.1172 5.76758 13.8203 5.29492 13.2266C4.82617 12.6289 4.5918 11.8379 4.5918 10.8535V10.7832ZM6.28516 10.9062C6.28516 11.4805 6.40039 11.9316 6.63086 12.2598C6.86133 12.584 7.17773 12.7461 7.58008 12.7461C8.0957 12.7461 8.46484 12.5527 8.6875 12.166V9.5C8.46094 9.11328 8.0957 8.91992 7.5918 8.91992C7.18555 8.91992 6.86523 9.08594 6.63086 9.41797C6.40039 9.75 6.28516 10.2461 6.28516 10.9062ZM18.7422 14H16.9844L13.5625 8.38672V14H11.8047V5.46875H13.5625L16.9902 11.0938V5.46875H18.7422V14Z" fill="white"/>
</svg>
